inDegrees=no
num_controls=7
num_derivatives=13
num_iterations=89
num_multipliers=7
num_parameters=0
num_slacks=7
num_states=26
objective=0.545230
objective_accelerations=0.041642
objective_balance=0.003699
objective_effort=0.040755
objective_height=0.449658
objective_ligament=0.009476
solver_duration=964.371533
status=Solve_Succeeded
success=true
DataType=double
version=3
OpenSimVersion=4.5
endheader
time	/jointset/ground_pelvis/pelvis_tilt/value	/jointset/ground_pelvis/pelvis_tx/value	/jointset/ground_pelvis/pelvis_ty/value	/jointset/hip_r/hip_flexion_r/value	/jointset/hip_r/hip_adduction_r/value	/jointset/hip_r/hip_rotation_r/value	/jointset/back/lumbar_extension/value	/jointset/patellofemoral_r/patellar_flexion_r/value	/jointset/knee_r/knee_flexion_r/value	/jointset/knee_r/knee_adduction_r/value	/jointset/knee_r/knee_rotation_r/value	/jointset/ankle_r/ankle_angle_r/value	/jointset/subtalar_r/subtalar_angle_r/value	/jointset/ground_pelvis/pelvis_tilt/speed	/jointset/ground_pelvis/pelvis_tx/speed	/jointset/ground_pelvis/pelvis_ty/speed	/jointset/hip_r/hip_flexion_r/speed	/jointset/hip_r/hip_adduction_r/speed	/jointset/hip_r/hip_rotation_r/speed	/jointset/back/lumbar_extension/speed	/jointset/patellofemoral_r/patellar_flexion_r/speed	/jointset/knee_r/knee_flexion_r/speed	/jointset/knee_r/knee_adduction_r/speed	/jointset/knee_r/knee_rotation_r/speed	/jointset/ankle_r/ankle_angle_r/speed	/jointset/subtalar_r/subtalar_angle_r/speed	/forceset/tau_hip_flexion_r	/forceset/tau_hip_adduction_r	/forceset/tau_hip_rotation_r	/forceset/tau_knee_flexion_r	/forceset/tau_ankle_angle_r	/forceset/tau_subtalar_angle_r	/forceset/tau_lumbar_extension	lambda_cid13_p0	lambda_cid14_p0	lambda_cid14_p1	lambda_cid14_p2	lambda_cid14_p3	lambda_cid14_p4	lambda_cid14_p5	/jointset/ground_pelvis/pelvis_tilt/accel	/jointset/ground_pelvis/pelvis_tx/accel	/jointset/ground_pelvis/pelvis_ty/accel	/jointset/hip_r/hip_flexion_r/accel	/jointset/hip_r/hip_adduction_r/accel	/jointset/hip_r/hip_rotation_r/accel	/jointset/back/lumbar_extension/accel	/jointset/patellofemoral_r/patellar_flexion_r/accel	/jointset/knee_r/knee_flexion_r/accel	/jointset/knee_r/knee_adduction_r/accel	/jointset/knee_r/knee_rotation_r/accel	/jointset/ankle_r/ankle_angle_r/accel	/jointset/subtalar_r/subtalar_angle_r/accel	gamma_cid13_p0	gamma_cid14_p0	gamma_cid14_p1	gamma_cid14_p2	gamma_cid14_p3	gamma_cid14_p4	gamma_cid14_p5
1.5	-0.229365942978952	0.007830529714943383	0.8489189990756533	0.8728363682770844	-0.2254191484018959	-0.1421705523332089	-0.3041360249945227	0.6534843562153039	0.6534843562159486	0.03678434458886912	0.1744794621188628	0.17761621341582	0.03868905613868644	0.5612792257382	0.2330724317758378	0.4011482560581917	-1.982064348811883	0.0121524047745207	-0.2905199688889593	0.6899151799056777	-1.744323181419593	-1.744323181419596	0.2764776091650254	0.0001016781060171211	-0.4045448705382386	-0.08943849560084859	-0.1432837009517023	-0.01666611058121242	0.007733355725609455	-0.2923138281728666	0.102281557645368	-0.01210562893539019	0.1749759796446336	-33.90529699785044	-8.834043940393073	-2.602934923404864	-3.923967081214038	-1.609453266691251	-657.772796931952	55.19445078217231	0.2554112640913436	0.5008025636667889	-0.459693335031682	-1.093179524357155	0.0005718323609812271	-0.5054398790218494	1.575553359537913	-1.07145918812069	-1.071459188120626	0.450315226930979	0.006449237499111428	-0.3565720449730956	-0.05475219115632568	1.259666983716492e-07	1.859759335681574e-07	-4.120205084802409e-07	1.260262244322969e-06	-6.230870380288076e-08	2.538195220274367e-07	-4.68633912085829e-07
1.51	-0.2237409009393199	0.0101860289804581	0.8529066694556059	0.8529631846097734	-0.225298501086995	-0.1450999066741082	-0.2971592658242552	0.6359898366130595	0.6359898366133697	0.03957381468202806	0.1744808878854945	0.1735532652556379	0.03779090800079312	0.563648989999587	0.2379962248712114	0.3963020278552305	-1.99230400055838	0.01197617958816803	-0.2953310303758929	0.7053440929777167	-1.754335019778658	-1.754335019778704	0.2814025310666168	0.00017427095920048	-0.407981515626397	-0.09017426393965226	-0.1355090913665059	-0.01843950823859835	0.007111328645267674	-0.2896397416985299	0.1044919433043306	-0.0125822048215745	0.1682854599800019	-34.81773891117782	-7.928505352859569	-2.544602264272059	-4.055207843449938	-1.864736970584617	-653.7436956281084	55.4380469575944	0.2157496782054403	0.4834772861503203	-0.5096023790116099	-0.9490751215731249	-0.02671040875361395	-0.4657400075331589	1.5126761055736	-0.9292156422528732	-0.9292156422593463	0.5114905634151504	0.006531543367670105	-0.3277149573523002	-0.08038579401892261	1.331499121456415e-07	1.89841072209997e-07	-4.752066070122843e-07	1.289222059021979e-06	-5.724676810354584e-08	2.644837595932412e-07	-5.201882705100582e-07
1.52	-0.2180945631228628	0.01258982809766221	0.8568433745903121	0.8329956610006425	-0.225179614166883	-0.1480767317746774	-0.2900309943583596	0.6184025647307335	0.6184025647307079	0.0424121159725294	0.1744828130274858	0.1694578498012513	0.03688592285175643	0.5655383811026885	0.2427324021137167	0.3909552070089421	-2.000932337175963	0.01180032581700962	-0.3000141208229885	0.7202176390312184	-1.762873637435861	-1.762873637435951	0.2862438486338869	0.0002015531779722443	-0.411038329379159	-0.09080589782951766	-0.1277344817813193	-0.02021290589598995	0.00648930156493275	-0.2869656552241949	0.1067023289632915	-0.01305878070776531	0.1615949403153624	-35.69850857582358	-7.030867798516603	-2.484791285859724	-4.18995398415414	-2.118388596774035	-649.8411416601632	55.75976850309353	0.1593366324342861	0.4632793930930711	-0.5598118636971391	-0.77091649857417	0.0006461153998368969	-0.479845671054239	1.464479955830471	-0.7768150477483898	-0.7768150477483931	0.4335943600666857	-0.002612889383211897	-0.2806057778938374	-0.03392530136867453	1.407512674130351e-07	1.912344448125119e-07	-5.574932080695302e-07	1.302235377989857e-06	-4.866717244231741e-08	2.732356678257039e-07	-5.764269512692004e-07
1.53	-0.2124317684025457	0.01504002163373698	0.8607241803726278	0.8129498952034578	-0.2250625127210458	-0.1511000739230943	-0.2827567800002949	0.6007372518299444	0.6007372518296157	0.04529828132869314	0.1744850506877235	0.1653337774880706	0.03597512005304965	0.5669373034171011	0.2472717714984435	0.3851296386825692	-2.007950804245261	0.01162217071605784	-0.3046413992165988	0.734529277546504	-1.769942981897275	-1.769942981897372	0.290964332792201	0.0002419034217302387	-0.4137095957884812	-0.0913336152349008	-0.1199580071904671	-0.02215960086333086	0.005890020358243064	-0.2844358906511276	0.1090915975841898	-0.01367095459526284	0.1549155994535801	-36.54305981652877	-6.096237183832877	-2.481536675847856	-4.310949884048329	-2.381730318197015	-646.1657852156363	56.03208455956597	0.1177003853267609	0.4440797194049086	-0.6053192221943691	-0.6267840804936846	-0.02659780237933316	-0.4519979853952805	1.400112544155776	-0.6351306424984975	-0.6351306424995703	0.4875066849993722	0.006995372304943703	-0.2503930117317171	-0.05899832917169168	1.487968980171676e-07	1.900015659982442e-07	-6.600740930598035e-07	1.298305545243406e-06	-3.635006307157718e-08	2.79955726141491e-07	-6.376427245091878e-07
1.54	-0.206757478388206	0.01753457166530763	0.8645444524906624	0.7928420502817035	-0.2249471031221283	-0.1541692546678217	-0.2753423279081214	0.5830086181851125	0.5830086181844744	0.04823089777469853	0.174487619128601	0.1611849913229406	0.03505967940647928	0.5678374399067859	0.2516037012128929	0.3788484741527195	-2.01334816209	0.01146195643364243	-0.3091818400854421	0.7482651858529099	-1.775537786245115	-1.775537786245219	0.2955340666019401	0.0002677093074738621	-0.4159810997690158	-0.09173346740222645	-0.1121815325996208	-0.02410629583067291	0.005290739151503324	-0.2819061260780602	0.1114808662050877	-0.01428312848276062	0.148236258591793	-37.34685754563239	-5.170413772864154	-2.476763721770518	-4.435684440719435	-2.641300692458731	-642.6318593027108	56.38715863977758	0.05957946748881753	0.4217914590375478	-0.6509311043924972	-0.446694653662266	0.004234279107117406	-0.4624781661008086	1.349333914054545	-0.4819070250337798	-0.4819070250337785	0.4034442903516765	-0.005521760986091842	-0.2006532921363536	-0.008352253757182291	1.569050020797254e-07	1.88060965710653e-07	-7.641262036090698e-07	1.290201087833377e-06	-2.346929521868018e-08	2.849345342718093e-07	-6.964921111579667e-07
1.55	-0.2010767046741209	0.02007137337173126	0.8682997084173114	0.7726883265515669	-0.2248332500476891	-0.1572835952336971	-0.2677933855299733	0.5652314085487222	0.5652314085484091	0.05120843620554105	0.1744905566901826	0.1570154977442099	0.03414083553130803	0.5682332455513037	0.2557187921981068	0.3721342444234345	-2.017126303868316	0.01131063885932455	-0.3136641665597929	0.7614254473031938	-1.779656679645798	-1.779656679645861	0.2999510257635427	0.0003110564946339249	-0.4178485126653022	-0.09201461718481492	-0.1044740590149992	-0.02621365709924608	0.004709601742409387	-0.2794190529441107	0.1139147489903356	-0.01501622991713448	0.1416261109734317	-38.10536875402111	-4.250839326815115	-2.528617702387363	-4.547947626203425	-2.880916376453568	-639.3387770906736	56.6864264779546	0.01699135413804504	0.4006902526046254	-0.6918810085454915	-0.3028075502552428	-0.02442906148862347	-0.4375469120894475	1.284695889554981	-0.3397952154420155	-0.3397952154359237	0.4573677697112463	0.008196170331321268	-0.1694016914696316	-0.03488979802828347	1.650850864313385e-07	1.853049472037976e-07	-8.698734218676106e-07	1.277286736789226e-06	-9.93909476677652e-09	2.879071193623482e-07	-7.526150089081792e-07
1.56	-0.1953944908553478	0.02264819045487542	0.8719857796263979	0.7525049346815802	-0.2247208330061545	-0.1604420464691112	-0.2601157758115141	0.5474204270347561	0.5474204270347639	0.05422945343612921	0.1744937143659832	0.1528294067558974	0.03321980146680715	0.5681254608440042	0.259606776557001	0.3650115306401938	-2.019281790060192	0.01117474985351421	-0.3180039739936326	0.7739986539150582	-1.78229216176074	-1.782292161760763	0.304229826551015	0.0003117321523644257	-0.4193005816853828	-0.09217150526814773	-0.09676658543038273	-0.02832101836782025	0.00412846433328241	-0.2769319798101615	0.1163486317755829	-0.01574933135150865	0.1350159633550664	-38.81415466378531	-3.34100066056085	-2.578999648813938	-4.664074855115999	-3.115242825541995	-636.2029810822563	57.07192416215695	-0.04113860287460627	0.3763701337735713	-0.7326279151836367	-0.1221635363742727	0.007319992808635375	-0.433974357998583	1.231922946370689	-0.1852247678857393	-0.1852247678857403	0.3758126155256189	-0.01405606687201399	-0.1175845168952277	0.01650008609394749	1.737215467389867e-07	1.824856391547746e-07	-9.829464008376467e-07	1.261831737808981e-06	3.814811648668681e-09	2.926737335731863e-07	-8.093320014244597e-07
1.57	-0.189715901013138	0.02526271141629964	0.8755986538640561	0.73230812770061	-0.2246097230615577	-0.1636434904429211	-0.2523154178040831	0.5295905293305747	0.5295905293304591	0.05729245437067137	0.1744969441978403	0.1486308751015689	0.03229779945568616	0.5675056930002391	0.2632552478540033	0.3575020682021586	-2.019801794735672	0.01105021066367624	-0.3222595899313048	0.785969398669394	-1.783433249030221	-1.783433249030238	0.3083424468236969	0.0003262966073808457	-0.4203333896655313	-0.0922068324532434	-0.08907103719313295	-0.03059624577479393	0.00355249786066654	-0.2745315707146418	0.1188946745678821	-0.01663291105036644	0.1284259108306457	-39.46887140612505	-2.415802061193984	-2.695749235350509	-4.765389239345759	-3.335289881829878	-633.2835840726643	57.38738990231078	-0.08540010160021824	0.3527656320988346	-0.7692319678243624	0.02477619491529746	-0.02184240957741013	-0.417311496781969	1.164117904772623	-0.04046884558888059	-0.04046884558805367	0.4246985954564046	0.00826407017041293	-0.08525129513279819	-0.01027975626403463	1.829284769916788e-07	1.795872191780418e-07	-1.105176580697052e-06	1.243200928908618e-06	1.784835051854079e-08	2.996828841843983e-07	-8.667916123983252e-07
1.58	-0.1840461096946587	0.02791245309158108	0.8791346081653918	0.712114459698496	-0.2244997588158032	-0.166886681833131	-0.2443984588161467	0.5117568371258793	0.5117568371256352	0.06039572388040559	0.174500129947938	0.1444241908961272	0.03137609804562367	0.5663657560975544	0.2666509193284464	0.3496275433756944	-2.018653994289146	0.01094561008594454	-0.3263534572741938	0.7973188500160271	-1.783051061864087	-1.783051061864098	0.3122835415890577	0.00030291580167485	-0.4209310919080055	-0.0921113850564477	-0.08137548895588631	-0.03287147318176629	0.002976531388011895	-0.2721311616191219	0.1214407173601815	-0.01751649074922155	0.1218358583062222	-40.06629533441176	-1.500636506939901	-2.810965480496723	-4.870706861511567	-3.551069225850696	-630.5288219241451	57.79120191255704	-0.145172414658488	0.3258101692617028	-0.8056403928694116	0.2113974880268339	0.01130771522989699	-0.4016246390419466	1.107664264830206	0.1194301192374005	0.1194301192374002	0.3415075140614083	-0.02164511901651051	-0.03056336936040918	0.04265500247221846	1.926404106849764e-07	1.791823076535777e-07	-1.231436867232353e-06	1.232148271136834e-06	2.880967909572049e-08	3.190169821674168e-07	-9.270356981892577e-07
1.59	-0.1783902417668413	0.03059482508679558	0.8825900848857127	0.6919405175271849	-0.2243907706592071	-0.1701702712564141	-0.2363713932362059	0.4939345426002956	0.4939345426002083	0.06353748675567671	0.1745031423377748	0.1402136502288032	0.03045596378784641	0.5647185334536223	0.2697746417759108	0.3414128605055642	-2.015840968953862	0.01085533454547263	-0.3303320854749538	0.8079743088490396	-1.781138870639198	-1.781138870639232	0.3160354031163412	0.000291432197199137	-0.4211013394048908	-0.091892838157033	-0.07361881262120734	-0.03534999411189569	0.002392752886972505	-0.2698817758696502	0.1241174538180275	-0.01855103961072766	0.1151940254751732	-40.60670309380527	-0.5644198241210506	-2.99122995658209	-4.962034413485482	-3.730132523745088	-627.9754662613824	58.1351299239134	-0.1878753789925539	0.2983355214169643	-0.8375479478127639	0.3602985467217061	-0.01868093228425957	-0.3908542972907027	1.026493124151591	0.2674176692789964	0.2674176692755772	0.3868420357838018	0.008127411286007368	0.001130054607219962	0.01476624388048521	2.030377061905244e-07	1.82161443314335e-07	-1.363166584256369e-06	1.231380247039548e-06	3.560157941853215e-08	3.550777944407433e-07	-9.910587140890671e-07
